<svg version="1.1" xmlns="http://www.w3.org/2000/svg" xmlns:xlink="http://www.w3.org/1999/xlink" width="46.70368" height="46.70368" viewBox="0,0,46.70368,46.70368"><g transform="translate(-216.64816,-156.64816)"><g data-paper-data="{&quot;isPaintingLayer&quot;:true}" fill-rule="nonzero" stroke-linecap="butt" stroke-linejoin="miter" stroke-miterlimit="10" stroke-dasharray="" stroke-dashoffset="0" style="mix-blend-mode: normal"><path d="M240,200.85184c-11.51616,0 -20.85184,-9.33568 -20.85184,-20.85184c0,-11.51616 9.33568,-20.85184 20.85184,-20.85184c11.51617,0 20.85184,9.33568 20.85184,20.85184c0,11.51615 -9.33568,20.85184 -20.85184,20.85184z" fill="#ffffff" stroke="#e32526" stroke-width="5"/><path d="M242.81918,180.59039l-4.74838,-3.34423l7.96245,-11.30566l4.74837,3.34423z" fill="#002438" stroke="none" stroke-width="0"/><path d="M258.44835,180.22919c0.01922,11.57359 -9.1699,15.70065 -9.1699,15.70065c0,0 -3.34008,-6.81128 -3.64344,-13.15461c-0.45254,-9.46264 0.81447,-19.94404 0.81447,-19.94404c0,0 11.97645,3.96 11.99878,17.398z" fill="#cfd2d3" stroke="none" stroke-width="0"/><path d="M248.12449,178.5377c0,0 -0.01802,-2.03578 0.0468,-3.39725c0.12209,-2.56419 1.20514,-10.81983 1.20514,-10.81983c0,0 3.6805,1.91312 5.82224,5.14522c2.78465,4.20222 3.11424,9.07185 3.11424,9.07185z" fill="#002439" stroke="none" stroke-width="0"/><path d="M257.13114,173.23551c0,0 -3.89999,-0.01473 -4.05001,-0.05684c-0.48906,-0.13736 -0.46514,-0.66358 -0.45477,-1.20111c0.02113,-1.09796 0.45477,-5.011 0.45477,-5.011c0,0 1.35736,1.24771 2.29739,2.77524c0.94005,1.52751 1.75267,3.49363 1.75267,3.49363z" fill="#c8cacb" stroke="none" stroke-width="0"/><path d="M251.42668,186.50136c0,0 -2.19012,-2.00518 -2.59058,-3.40032c-0.43185,-1.50448 -0.71364,-4.63225 -0.71364,-4.63225l10.26539,-0.07599c0,0 0.129,3.3111 -0.10262,4.70078c-0.20215,1.21302 -0.98272,3.55985 -0.98272,3.55985z" fill="#5a6770" stroke="none" stroke-width="0"/><path d="M258.40006,180.5167c0,0 0.02169,1.56262 -0.05833,2.21619c-0.07091,0.57923 -0.32175,1.53176 -0.32175,1.53176l-5.20095,0.03097v-3.72544l5.58109,-0.0535z" fill="#cfd2d3" stroke="none" stroke-width="0"/><path d="M221.89418,189.76843v-2.25h18.625v2.25z" fill="#5a6770" stroke="none" stroke-width="0"/><path d="M223.14418,188.89343h14.625v10.5h-7.37178c-0.0348,-0.09029 -0.07396,-0.16311 -0.11796,-0.21517c-1.94813,-2.30487 -4.38614,-4.77854 -7.13526,-6.31204z" fill="#5a6770" stroke="none" stroke-width="0"/><path d="M235.94803,191.30513l-0.72367,-2.13045l4.61597,-1.56795l0.72367,2.13045z" fill="#5a6770" stroke="none" stroke-width="0"/><path d="M240,200.85184c-11.51616,0 -20.85184,-9.33568 -20.85184,-20.85184c0,-11.51616 9.33568,-20.85184 20.85184,-20.85184c11.51617,0 20.85184,9.33568 20.85184,20.85184c0,11.51615 -9.33568,20.85184 -20.85184,20.85184z" fill="none" stroke="#e32526" stroke-width="5"/><g stroke="none"><path d="M242.03261,182.29057l-0.10133,0.17466c-0.92696,0.5791 -1.65565,2.02404 -2.24845,3.10402l-2.0478,-1.00618l0.27761,-1.48838l-2.76856,-0.13035l-3.02529,-1.943c0,0 -0.0196,-1.18366 0.0694,-1.71572c0.11046,-0.66037 0.623,-1.82836 0.623,-1.82836c0,0 1.07885,0.55909 1.6208,0.60363c0.91545,0.07527 3.54919,-0.18553 3.54919,-0.18553l3.8708,2.69699z" fill="#002438" stroke-width="0"/><path d="M237.57613,184.60353l2.31718,-3.65373l2.14762,1.36201l-2.31718,3.65373z" fill="#002438" stroke-width="0"/><path d="M228.36473,178.60527l1.80421,-2.84489l6.88352,4.36549l-1.80421,2.84489z" fill="#002438" stroke-width="0"/><path d="M237.20919,178.7922l-0.05382,-1.15937l0.14896,-0.01801l0.0725,1.13553z" fill="#ffffff" stroke-width="0"/><path d="M237.35274,178.99741c-0.17404,0.02104 -0.33218,-0.10299 -0.35322,-0.27703c-0.02104,-0.17404 0.103,-0.33218 0.27703,-0.35322c0.17404,-0.02104 0.33218,0.103 0.35322,0.27703c0.02104,0.17405 -0.10299,0.33219 -0.27703,0.35323z" fill="#ffffff" stroke-width="0.5"/><path d="M236.34933,178.64698l-0.05382,-1.15936l0.14896,-0.018l0.07251,1.13551z" fill="#ffffff" stroke-width="0"/><path d="M236.409,179.01829c-0.17405,0.02104 -0.3322,-0.103 -0.35324,-0.27704c-0.02104,-0.17404 0.103,-0.33217 0.27704,-0.35321c0.17404,-0.02104 0.33218,0.10299 0.35322,0.27702c0.02104,0.17404 -0.10298,0.33219 -0.27702,0.35323z" fill="#ffffff" stroke-width="0.5"/><path d="M235.38645,178.65283l-0.05381,-1.15937l0.14894,-0.018l0.07252,1.13551z" fill="#ffffff" stroke-width="0"/><path d="M235.4482,179.0412c-0.17404,0.02104 -0.33219,-0.10299 -0.35323,-0.27703c-0.02104,-0.17404 0.103,-0.33218 0.27704,-0.35322c0.17405,-0.02104 0.33217,0.103 0.35321,0.27703c0.02104,0.17404 -0.10298,0.33218 -0.27702,0.35322z" fill="#ffffff" stroke-width="0.5"/><path d="M227.05199,176.4425c0.67093,-1.05793 2.07243,-1.37164 3.13036,-0.70071c0.90073,0.57124 1.26199,1.67209 0.93535,2.63957c-0.61773,-0.45383 -1.3286,-0.53517 -2.03761,-0.40154c-0.38877,-0.02072 -0.77742,0.0161 -1.15295,0.10757c-0.24738,-0.08203 -0.71365,-0.36693 -1.08276,-0.46911c-0.03706,-0.04676 -0.08537,-0.08748 -0.13961,-0.12533c0.02597,-0.36184 0.13933,-0.72263 0.34723,-1.05044z" fill="#002438" stroke-width="0"/><path d="M226.70465,177.55246l0.4316,-0.68054l3.83558,2.43251l-0.4316,0.68054z" fill="#002438" stroke-width="0"/></g><path d="M243.19858,194.0245c-3.77813,0 -6.84083,-3.06274 -6.84083,-6.84084c0,-3.77811 3.06275,-6.84085 6.84083,-6.84085c3.77811,0 6.84084,3.06278 6.84084,6.84085c0,3.77813 -3.06274,6.84084 -6.84084,6.84084z" fill="none" stroke="#e21d18" stroke-width="1"/></g></g></svg>