<svg version="1.1" xmlns="http://www.w3.org/2000/svg" xmlns:xlink="http://www.w3.org/1999/xlink" width="46.70368" height="46.70368" viewBox="0,0,46.70368,46.70368"><g transform="translate(-216.64816,-156.64816)"><g data-paper-data="{&quot;isPaintingLayer&quot;:true}" fill-rule="nonzero" stroke-linecap="butt" stroke-linejoin="miter" stroke-miterlimit="10" stroke-dasharray="" stroke-dashoffset="0" style="mix-blend-mode: normal"><path d="M219.14816,180c0,-11.51616 9.33567,-20.85184 20.85184,-20.85184c11.51616,0 20.85184,9.33568 20.85184,20.85184c0,11.51616 -9.33568,20.85184 -20.85184,20.85184c-11.51616,0 -20.85184,-9.33569 -20.85184,-20.85184z" data-paper-data="{&quot;index&quot;:null}" fill="#ffffff" stroke="#e32526" stroke-width="5"/><path d="M229.21838,169.28473l4.74837,-3.34423l7.96245,11.30566l-4.74838,3.34423z" data-paper-data="{&quot;index&quot;:null}" fill="#002438" stroke="none" stroke-width="0"/><path d="M221.55174,180.22919c0.02233,-13.438 11.99878,-17.398 11.99878,-17.398c0,0 1.26701,10.4814 0.81447,19.94404c-0.30336,6.34333 -3.64344,13.15461 -3.64344,13.15461c0,0 -9.18912,-4.12706 -9.1699,-15.70065z" data-paper-data="{&quot;index&quot;:null}" fill="#cfd2d3" stroke="none" stroke-width="0"/><path d="M221.68709,178.53769c0,0 0.32959,-4.86963 3.11424,-9.07185c2.14174,-3.2321 5.82224,-5.14522 5.82224,-5.14522c0,0 1.08305,8.25564 1.20514,10.81983c0.06482,1.36147 0.0468,3.39725 0.0468,3.39725z" data-paper-data="{&quot;index&quot;:null}" fill="#002439" stroke="none" stroke-width="0"/><path d="M222.86881,173.23543c0,0 0.81262,-1.96612 1.75267,-3.49363c0.94003,-1.52753 2.29739,-2.77524 2.29739,-2.77524c0,0 0.43364,3.91304 0.45477,5.011c0.01037,0.53753 0.03429,1.06375 -0.45477,1.20111c-0.15002,0.04211 -4.05001,0.05684 -4.05001,0.05684z" data-paper-data="{&quot;index&quot;:null}" fill="#c8cacb" stroke="none" stroke-width="0"/><path d="M222.69749,186.65343c0,0 -0.78057,-2.34683 -0.98272,-3.55985c-0.23162,-1.38968 -0.10262,-4.70078 -0.10262,-4.70078l10.26539,0.07599c0,0 -0.28179,3.12777 -0.71364,4.63225c-0.40046,1.39514 -2.59058,3.40032 -2.59058,3.40032z" data-paper-data="{&quot;index&quot;:null}" fill="#5a6770" stroke="none" stroke-width="0"/><path d="M221.59988,180.51668l5.58109,0.0535v3.72544l-5.20095,-0.03097c0,0 -0.25084,-0.95253 -0.32175,-1.53176c-0.08002,-0.65357 -0.05833,-2.21619 -0.05833,-2.21619z" data-paper-data="{&quot;index&quot;:null}" fill="#cfd2d3" stroke="none" stroke-width="0"/><path d="M239.48082,189.76843v-2.25h18.625v2.25z" data-paper-data="{&quot;index&quot;:null}" fill="#5a6770" stroke="none" stroke-width="0"/><path d="M256.85582,192.86622c-2.74912,1.5335 -5.18713,4.00717 -7.13526,6.31204c-0.044,0.05206 -0.08316,0.12488 -0.11796,0.21517h-7.37178v-10.5h14.625z" data-paper-data="{&quot;index&quot;:null}" fill="#5a6770" stroke="none" stroke-width="0"/><path d="M239.436,189.73718l0.72367,-2.13045l4.61597,1.56795l-0.72367,2.13045z" data-paper-data="{&quot;index&quot;:null}" fill="#5a6770" stroke="none" stroke-width="0"/><path d="M219.14816,180c0,-11.51616 9.33567,-20.85184 20.85184,-20.85184c11.51616,0 20.85184,9.33568 20.85184,20.85184c0,11.51616 -9.33568,20.85184 -20.85184,20.85184c-11.51616,0 -20.85184,-9.33569 -20.85184,-20.85184z" data-paper-data="{&quot;index&quot;:null}" fill="none" stroke="#e32526" stroke-width="5"/><g data-paper-data="{&quot;index&quot;:null}" stroke="none"><path d="M238.14802,180.57235l3.8708,-2.69699c0,0 2.63374,0.2608 3.54919,0.18553c0.54195,-0.04454 1.6208,-0.60363 1.6208,-0.60363c0,0 0.51254,1.16799 0.623,1.82836c0.089,0.53206 0.0694,1.71572 0.0694,1.71572l-3.02529,1.943l-2.76856,0.13035l0.27761,1.48838l-2.0478,1.00618c-0.5928,-1.07998 -1.32149,-2.52492 -2.24845,-3.10402l-0.10133,-0.17466z" fill="#002438" stroke-width="0"/><path d="M240.27625,185.96554l-2.31718,-3.65373l2.14762,-1.36201l2.31718,3.65373z" fill="#002438" stroke-width="0"/><path d="M244.75175,182.97076l-1.80421,-2.84489l6.88352,-4.36549l1.80421,2.84489z" fill="#002438" stroke-width="0"/><path d="M242.62317,178.75035l0.0725,-1.13553l0.14896,0.01801l-0.05382,1.15937z" fill="#ffffff" stroke-width="0"/><path d="M242.64726,178.99742c-0.17404,-0.02104 -0.29807,-0.17918 -0.27703,-0.35323c0.02104,-0.17403 0.17918,-0.29807 0.35322,-0.27703c0.17403,0.02104 0.29807,0.17918 0.27703,0.35322c-0.02104,0.17404 -0.17918,0.29807 -0.35322,0.27703z" fill="#ffffff" stroke-width="0.5"/><path d="M243.48302,178.60513l0.07251,-1.13551l0.14896,0.018l-0.05382,1.15936z" fill="#ffffff" stroke-width="0"/><path d="M243.31398,178.66506c0.02104,-0.17403 0.17918,-0.29806 0.35322,-0.27702c0.17404,0.02104 0.29808,0.17917 0.27704,0.35321c-0.02104,0.17404 -0.17919,0.29808 -0.35324,0.27704c-0.17404,-0.02104 -0.29806,-0.17919 -0.27702,-0.35323z" fill="#ffffff" stroke-width="0.5"/><path d="M244.4459,178.61097l0.07252,-1.13551l0.14894,0.018l-0.05381,1.15937z" fill="#ffffff" stroke-width="0"/><path d="M244.27478,178.68798c0.02104,-0.17403 0.17916,-0.29807 0.35321,-0.27703c0.17404,0.02104 0.29808,0.17918 0.27704,0.35322c-0.02104,0.17404 -0.17919,0.29807 -0.35323,0.27703c-0.17404,-0.02104 -0.29806,-0.17918 -0.27702,-0.35322z" fill="#ffffff" stroke-width="0.5"/><path d="M252.948,176.44251c0.2079,0.32781 0.32126,0.6886 0.34723,1.05044c-0.05424,0.03785 -0.10255,0.07857 -0.13961,0.12533c-0.36911,0.10218 -0.83538,0.38708 -1.08276,0.46911c-0.37553,-0.09147 -0.76418,-0.12829 -1.15295,-0.10757c-0.70901,-0.13363 -1.41988,-0.05229 -2.03761,0.40154c-0.32664,-0.96748 0.03462,-2.06833 0.93535,-2.63957c1.05793,-0.67093 2.45943,-0.35722 3.13036,0.70071z" fill="#002438" stroke-width="0"/><path d="M249.45977,179.98497l-0.4316,-0.68054l3.83558,-2.43251l0.4316,0.68054z" fill="#002438" stroke-width="0"/></g><path d="M229.96058,187.18366c0,-3.77807 3.06273,-6.84085 6.84084,-6.84085c3.77808,0 6.84083,3.06274 6.84083,6.84085c0,3.7781 -3.0627,6.84084 -6.84083,6.84084c-3.7781,0 -6.84084,-3.06271 -6.84084,-6.84084z" data-paper-data="{&quot;index&quot;:null}" fill="none" stroke="#e21d18" stroke-width="1"/></g></g></svg>